<?xml version="1.0" encoding="UTF-8"?>
<svg width="769px" height="772px" viewBox="0 0 769 772" version="1.1" xmlns="http://www.w3.org/2000/svg" xmlns:xlink="http://www.w3.org/1999/xlink">
    <!-- Generator: Sketch 49.3 (51167) - http://www.bohemiancoding.com/sketch -->
    <title>high_fans</title>
    <desc>Created with Sketch.</desc>
    <defs></defs>
    <g id="Page-1" stroke="none" stroke-width="1" fill="none" fill-rule="evenodd">
        <g id="high_fans" fill="#2196F3" fill-rule="nonzero">
            <path d="M507.314307,376.974297 L502.215172,373.698694 C461.141708,324.370219 520.030933,318.53942 564.825138,269.860744 C609.619344,221.182068 608.166249,181.192285 629.643399,163.311033 C651.120549,145.42978 720.805655,150.433748 765.052392,242.750293 C805.827051,397.650199 507.314307,376.974297 507.314307,376.974297 Z M422.486316,283.163725 C356.239519,287.76144 384.049912,238.36645 366.383554,176.055289 C348.717196,113.744128 312.816544,92.52485 309.135712,65.701948 C305.45488,38.878023 348.806223,-12.917644 454.544453,4.033423 C613.255151,58.694347 428.210691,281.000455 428.210691,281.000455 L422.486316,283.163725 Z M180.979914,293.503211 C116.234308,273.05039 77.698643,289.63716 51.992168,277.740202 C26.285693,265.843244 4.484154,203.101271 77.781531,129.119303 C213.587567,34.193327 307.719457,302.673058 307.719457,302.673058 L306.471023,308.379013 C273.982074,363.124871 245.724497,313.956032 180.979914,293.503211 Z M265.850883,408.350912 L270.819035,411.801501 C309.937984,462.528836 250.861494,466.301766 204.196685,513.386131 C157.531876,560.470496 157.423405,600.483815 135.262686,617.603727 C113.101967,634.72364 43.659385,627.294437 3.048455,533.498191 C-31.651858,377.280266 265.850883,408.350912 265.850883,408.350912 Z M341.360647,490.019956 C407.077371,480.883878 383.141216,532.058398 405.554691,592.991166 C427.968167,653.923934 465.405824,672.620761 471.140432,699.120298 C476.87504,725.619835 437.623061,780.257223 330.860502,770.613586 C168.364594,726.999253 335.817397,492.571059 335.817397,492.571059 L341.360647,490.019956 Z M384.022283,482.392232 C332.048561,482.392232 289.915975,440.259646 289.915975,388.285924 C289.915975,336.312202 332.048561,294.179616 384.022283,294.179616 C435.996005,294.179616 478.128591,336.312202 478.128591,388.285924 C478.128591,440.259646 435.996005,482.392232 384.022283,482.392232 Z M456.883731,473.368718 C480.732905,414.787508 516.156696,459.621623 583.335725,471.094932 C650.514754,482.568241 686.137066,460.933501 713.382593,469.226375 C740.628121,477.519248 771.721279,536.660207 710.402725,619.805882 C590.396537,732.144436 456.514317,479.185191 456.514317,479.185191 L456.883731,473.368718 Z" id="Shape"></path>
        </g>
    </g>
</svg>