<?xml version="1.0" encoding="UTF-8"?>
<svg width="768px" height="751px" viewBox="0 0 768 751" version="1.1" xmlns="http://www.w3.org/2000/svg" xmlns:xlink="http://www.w3.org/1999/xlink">
    <!-- Generator: Sketch 49.3 (51167) - http://www.bohemiancoding.com/sketch -->
    <title>low_fans</title>
    <desc>Created with Sketch.</desc>
    <defs></defs>
    <g id="Page-1" stroke="none" stroke-width="1" fill="none" fill-rule="evenodd">
        <g id="low_fans" fill="#2196F3" fill-rule="nonzero">
            <path d="M658.01707,666.937045 C492.142205,660.394025 412.824718,570.056554 383.736216,525.778095 C376.16989,527.657908 368.260756,528.670982 360.113192,528.670982 C334.449696,528.670982 311.111151,518.760261 293.67913,502.573604 C240.714849,563.428599 175.008358,732.521762 156.857976,743.820086 C142.481548,773.59625 -44.598268,709.09726 10.130194,567.145248 C97.557382,429.584242 212.861478,404.769067 267.089544,401.181356 C276.851885,370.709344 301.157454,346.748629 331.852547,337.483615 C314.423595,264.034788 192.797513,108.36638 192.42196,86.013279 C174.274648,58.373779 325.785364,-68.920396 419.397415,51.006997 C494.386317,200.62255 452.315129,314.329265 427.663682,360.476281 C446.219293,378.256226 457.79084,403.264806 457.79084,430.993334 C457.79084,438.690643 456.872934,446.168965 455.189596,453.353598 C531.920165,470.575841 717.731081,441.07904 736.986634,451.282426 C769.953466,448.740534 808.24149,642.888326 658.01707,666.937045 Z" id="Shape"></path>
        </g>
    </g>
</svg>