<?xml version="1.0" encoding="UTF-8"?>
<svg width="512px" height="448px" viewBox="0 0 512 448" version="1.1" xmlns="http://www.w3.org/2000/svg" xmlns:xlink="http://www.w3.org/1999/xlink">
    <!-- Generator: Sketch 49.3 (51167) - http://www.bohemiancoding.com/sketch -->
    <title>flaticon1528775920-svg</title>
    <desc>Created with Sketch.</desc>
    <defs></defs>
    <g id="Page-1" stroke="none" stroke-width="1" fill="none" fill-rule="evenodd">
        <g id="Artboard" transform="translate(0.000000, -32.000000)" fill-rule="nonzero">
            <g id="flaticon1528775920-svg" transform="translate(0.000000, 32.000000)">
                <path d="M31.957,0 L480.042,0 C497.692,0 512,14.308 512,31.957 L512,416.042 C512,433.692 497.692,447.999 480.043,447.999 L31.957,447.999 C14.308,448 0,433.692 0,416.043 L0,31.957 C0,14.308 14.308,0 31.957,0 Z" id="Shape" fill="#424242"></path>
                <path d="M458.667,405.333 L352,405.333 C346.109,405.333 341.333,400.557 341.333,394.666 C341.333,388.775 346.109,383.999 352,383.999 L458.667,383.999 C464.558,383.999 469.334,388.775 469.334,394.666 C469.333,400.558 464.558,405.333 458.667,405.333 Z" id="Shape" fill="#E57373"></path>
                <path d="M224,42.667 C123.852,42.667 42.667,123.852 42.667,224 C42.667,324.148 123.852,405.333 224,405.333 C324.148,405.333 405.333,324.148 405.333,224 C405.216,123.901 324.099,42.784 224,42.667 Z" id="Shape" fill="#FAFAFA"></path>
                <g id="Group" transform="translate(81.000000, 85.000000)" fill="#424242">
                    <path d="M153.667,0.333 C95.896,0.333 89.667,30.2 89.667,43 C91.222,65.52 94.908,87.842 100.675,109.667 C101.891,114.376 106.137,117.666 111,117.667 C111.717,117.67 112.432,117.598 113.133,117.454 L166.466,106.787 C171.433,105.773 175,101.403 174.999,96.334 C174.999,87.033 195.415,76.963 208.94,70.286 C225.731,62.029 239,55.48 239,43 C239,17.933 183.533,0.333 153.667,0.333 Z" id="Shape"></path>
                    <path d="M139.309,175.672 L103.405,134.733 C100.034,130.941 94.458,130.049 90.072,132.6 C82.051,137.251 63.085,124.6 50.563,116.216 C34.99,105.848 22.702,97.613 11.886,103.843 C-9.831,116.366 2.606,173.112 17.603,199.075 C35.715,230.435 53.87,238.392 67.587,238.392 C74.257,238.335 80.795,236.533 86.552,233.165 C105.28,220.559 122.767,206.201 138.776,190.285 C142.79,186.322 143.024,179.918 139.309,175.672 Z" id="Shape"></path>
                    <path d="M252.803,140.813 C232.527,130.899 211.354,122.934 189.571,117.026 C184.122,115.515 178.441,118.52 176.622,123.874 L159.193,175.394 C157.568,180.211 159.568,185.505 163.972,188.045 C172.015,192.717 170.543,215.416 169.561,230.456 C168.324,249.144 167.428,263.885 178.094,270.115 C181.051,271.787 184.404,272.635 187.801,272.568 C200.166,271.015 211.788,265.817 221.188,257.635 C235.774,246.688 248.164,233.088 257.711,217.55 C265.744,204.958 270.557,190.584 271.727,175.694 C272.731,161.378 265.352,147.775 252.803,140.813 Z" id="Shape"></path>
                </g>
                <circle id="Oval" fill="#EFEFEF" cx="224" cy="224" r="53.333"></circle>
                <circle id="Oval" fill="#E57373" cx="224" cy="224" r="21.333"></circle>
            </g>
        </g>
    </g>
</svg>