<?xml version="1.0" standalone="no"?><!DOCTYPE svg PUBLIC "-//W3C//DTD SVG 1.1//EN" "http://www.w3.org/Graphics/SVG/1.1/DTD/svg11.dtd"><svg t="1528344350350" class="icon" style="" viewBox="0 0 1024 1024" version="1.1" xmlns="http://www.w3.org/2000/svg" p-id="4984" xmlns:xlink="http://www.w3.org/1999/xlink" width="200" height="200"><defs><style type="text/css"></style></defs><path d="M529.670054 629.278185l105.476628-379.498384c6.524328-23.37884-13.592349-49.47615-44.582905-58.175253-30.990556-8.699103-61.437417 3.262164-67.961745 27.184698l-105.476628 379.498384c-54.91309 8.155409-102.214464 47.301374-117.981589 104.38924-21.204064 76.660848 23.37884 156.58386 100.583382 177.787925 76.660848 21.204064 156.58386-23.37884 177.787925-100.583383 15.223431-57.087866-5.43694-115.263119-47.845068-150.603227z" fill="#424242" p-id="4985" data-spm-anchor-id="a313x.7781069.0.i3" class="selected"></path><path d="M680.273281 595.025466l106.564016-383.304242c11.417573-41.320741 1.087388-87.534728-28.272086-126.136999-27.184698-35.883801-69.049133-63.068499-116.894202-76.660848s-97.864913-11.417573-139.729347 4.893246c-45.126599 17.941901-77.748236 51.650926-89.16581 93.515361l-106.564016 383.304241c-69.049133 36.427495-119.612671 98.952301-140.816735 174.525762-20.116677 72.854991-10.873879 148.972145 26.09731 214.759114 36.971189 65.786969 97.864913 113.088344 170.719903 133.20502 72.854991 20.116677 148.972145 10.873879 214.759114-26.09731 65.786969-36.971189 113.088344-97.864913 133.20502-170.719904 21.204064-75.029766 10.330185-154.952779-29.903167-221.283441z m-297.94429 345.245664c-109.82618-30.446862-174.525761-144.622593-144.0789-254.992467 16.310819-59.806336 58.718948-108.195098 114.719426-133.20502l16.310819-7.068022 115.806813-417.013267c11.417573-41.864435 73.398685-62.524805 135.379796-45.670292 61.437417 17.398207 103.845546 66.874357 92.427973 108.738792l-115.806813 417.013267 10.330185 14.679737c35.340107 50.563538 46.213987 114.175732 29.359474 173.438373-29.903168 110.369874-144.622593 174.525761-254.448773 144.078899z" fill="#424242" p-id="4986" data-spm-anchor-id="a313x.7781069.0.i4" class="selected"></path></svg>